<svg xmlns="http://www.w3.org/2000/svg" xmlns:xlink="http://www.w3.org/1999/xlink" version="1.1" id="Layer_1" x="0px" y="0px" width="50px" height="50px" viewBox="0 0 100 100" enable-background="new 0 0 100 100" xml:space="preserve">
<polygon points="57.193,45.782 57.193,47.484 55.852,47.484 55.852,45.782 54.27,45.782 54.27,47.484 52.93,47.484 52.93,45.782   51.348,45.782 51.348,47.484 50.006,47.484 50.006,45.782 48.424,45.782 48.424,47.484 47.083,47.484 47.083,45.782 45.501,45.782   45.501,47.484 44.161,47.484 44.161,45.782 42.578,45.782 42.578,47.484 41.237,47.484 41.237,45.782 39.655,45.782 39.655,47.484   38.314,47.484 38.314,45.782 36.747,45.782 36.747,52.125 58.762,52.125 58.762,45.782 "/>
<g>
	<path d="M75.891,10.571c0,0-4.248,0.345-5.074-0.372c-0.827-0.717-4.867-0.356-4.867-0.356V1.655c0,0,2.432,0.232,4.636,1.619   s5.306,1.854,5.306,1.854V10.571z"/>
	<path d="M83.053,11.193c0,0-2.859,1.046-3.943,0.808c-1.086-0.238-4.402,0.902-4.402,0.902v-1.709l1.865,0.051l-0.107-3.656   c0,0,1.887-0.312,2.915,0.558s3.465,0.662,3.465,0.662L83.053,11.193z"/>
	<path d="M89.739,12.117c0,0-3.15,1.264-4.089,0.766c-0.939-0.498-3.945,0.738-3.945,0.738v-1.392l1.71-0.552l0.018-1.432   c0,0,1.486-0.104,2.03,0.603S89.739,12.117,89.739,12.117z"/>
</g>
<rect x="64.56" y="1.655" width="1.19" height="21.61"/>
<polygon points="74.717,26.159 56.783,26.159 65.341,12.903 "/>
<path d="M67.094,61.515v32.9h26.209v-32.9H67.094z M74.118,62.81h-0.706v-1.294h0.706V62.81z M75.618,62.81h-0.706v-1.294h0.706  V62.81z M77.118,62.81h-0.706v-1.294h0.706V62.81z"/>
<g>
	<g>
		<rect x="42.316" y="77.23" width="14.557" height="0.985"/>
		<polygon points="43.22,79.841 42.798,78.796 42.798,71.952 43.703,71.952 43.703,78.854   "/>
		<polygon points="44.999,79.841 44.578,78.796 44.578,71.952 45.482,71.952 45.482,78.854   "/>
		<polygon points="46.778,79.841 46.356,78.796 46.356,71.952 47.261,71.952 47.261,78.854   "/>
		<polygon points="48.558,79.841 48.135,78.796 48.135,71.952 49.04,71.952 49.04,78.854   "/>
		<polygon points="50.336,79.841 49.915,78.796 49.915,71.952 50.819,71.952 50.819,78.854   "/>
		<polygon points="52.115,79.841 51.693,78.796 51.693,71.952 52.598,71.952 52.598,78.854   "/>
		<polygon points="53.895,79.841 53.472,78.796 53.472,71.952 54.377,71.952 54.377,78.854   "/>
	</g>
	<polygon points="55.528,79.84 55.106,78.796 55.106,71.952 56.012,71.952 56.012,78.854  "/>
</g>
<path d="M58.763,25.184V52.29h13.975V25.184H58.763z M59.95,30.917h0.007c0.04-1.184,1.65-2.943,1.65-2.943s1.61,1.76,1.65,2.943  h0.007v2.962H59.95V30.917z M65.155,44.27h-3.313v-4.068h0.02c0.104-1,1.637-2.077,1.637-2.077s1.537,1.053,1.639,2.077h0.019V44.27  z M67.407,33.878h-3.314v-2.962H64.1c0.04-1.184,1.65-2.943,1.65-2.943s1.61,1.76,1.65,2.943h0.007V33.878z M71.55,33.878h-3.314  v-2.962h0.008c0.039-1.184,1.65-2.943,1.65-2.943s1.609,1.76,1.65,2.943h0.006V33.878z"/>
<path d="M39.017,31.271v1.702h-1.341v-1.702h-1.582v1.702h-1.341v-1.702H33.17v1.702H31.83v-1.702h-1.582v1.702h-1.341v-1.702  h-1.582v1.702h-1.341v-1.702h-1.583v1.702h-1.341v-1.702h-1.582v1.702h-1.341v-1.702H18.57v6.343l3.427,2.076v12.435h15.161V39.69  l3.427-2.076v-6.343H39.017z M27.977,46.257h-3.314v-4.068h0.019c0.104-1,1.638-2.077,1.638-2.077s1.536,1.053,1.638,2.077h0.02  V46.257z"/>
<path d="M95.161,45.661v1.702H93.82v-1.702h-1.582v1.702h-1.341v-1.702h-1.583v1.702h-1.34v-1.702h-1.582v1.702h-1.342v-1.702  h-1.582v1.702h-1.34v-1.702h-1.583v1.702h-1.341v-1.702h-1.582v1.702h-1.341v-1.702h-1.567v6.343l3.426,2.076v12.435h15.162V54.08  l3.427-2.076v-6.343H95.161z M89.739,62.394h-3.313v-5.067h0.019c0.104-1,1.638-2.077,1.638-2.077s1.536,1.053,1.638,2.077h0.02  V62.394z"/>
<path d="M21.997,52.125v42.29h50.741v-42.29H21.997z M40.061,58.66h-3.314v-4.068h0.019c0.104-0.999,1.638-2.076,1.638-2.076  s1.536,1.053,1.638,2.076h0.02V58.66z M56.783,93.215H42.358V76.48h0.062c0.625-1.775,7.15-4.012,7.15-4.012s6.525,2.236,7.15,4.012  h0.062V93.215z M69.262,58.66h-3.313v-4.068h0.019c0.104-0.999,1.639-2.076,1.639-2.076s1.535,1.053,1.637,2.076h0.02V58.66z"/>
</svg>