<svg xmlns:dc="http://purl.org/dc/elements/1.1/" xmlns:cc="http://creativecommons.org/ns#" xmlns:rdf="http://www.w3.org/1999/02/22-rdf-syntax-ns#" xmlns:svg="http://www.w3.org/2000/svg" xmlns="http://www.w3.org/2000/svg" xmlns:sodipodi="http://sodipodi.sourceforge.net/DTD/sodipodi-0.dtd" xmlns:inkscape="http://www.inkscape.org/namespaces/inkscape" width="50" height="50" id="svg3070" version="1.1" inkscape:version="0.48.4 r9939" sodipodi:docname="barn with garage small.svg">
  <defs id="defs3072"/>
  <sodipodi:namedview id="base" pagecolor="#ffffff" bordercolor="#666666" borderopacity="1.0" inkscape:pageopacity="0.0" inkscape:pageshadow="2" inkscape:zoom="5.19" inkscape:cx="50" inkscape:cy="50" inkscape:document-units="px" inkscape:current-layer="layer1" showgrid="false" inkscape:window-width="1366" inkscape:window-height="706" inkscape:window-x="-8" inkscape:window-y="-8" inkscape:window-maximized="1"/>
  <metadata id="metadata3075">
    <rdf:RDF>
      <cc:Work rdf:about="">
        <dc:format>image/svg+xml</dc:format>
        <dc:type rdf:resource="http://purl.org/dc/dcmitype/StillImage"/>
        <dc:title/>
      </cc:Work>
    </rdf:RDF>
  </metadata>
  <g inkscape:label="Layer 1" inkscape:groupmode="layer" id="layer1" transform="translate(0,-952.36218)">
    <g id="g5092" transform="matrix(0.10168373,0,0,0.10168373,-4.3957274,948.78797)">
      <path id="path4307" d="M 74.98654,802.84375 74.79904,813 l 199.53125,0 0,-10.15625 -199.34375,0 z m 499.3125,0 0,10.15625 195.8125,0 0.90625,-10.15625 -196.71875,0 z" style="fill:#000000;fill-opacity:1;fill-rule:evenodd;stroke:none" inkscape:connector-curvature="0"/>
      <path inkscape:connector-curvature="0" id="path4309" d="m 760.6875,605.4375 0,9.14419 c 3.38523,0.44502 6.77098,0.87966 10.15625,1.32433 l 0,-4.91894 c -3.38386,-1.8403 -6.77222,-3.70971 -10.15625,-5.54958 z m 0,36.45063 0,170.08192 10.15625,0.0946 0,-168.85218 c -3.38547,-0.44182 -6.7708,-0.8824 -10.15625,-1.32433 z" style="fill:#000000;fill-opacity:1;fill-rule:evenodd;stroke:none"/>
      <path id="path4305" d="m 85.17051,607.00031 c -3.37966,1.81893 -6.76299,3.63013 -10.14236,5.44904 l 0,197.67659 10.14236,0.0796 0,-203.20518 z" style="fill:#000000;fill-opacity:1;fill-rule:evenodd;stroke:none" inkscape:connector-curvature="0"/>
      <path id="rect4082" d="m 258.26051,376.26955 c -3.38099,1.82044 -6.76459,3.63604 -10.14553,5.45656 l 0,83.56718 c 3.37848,-1.79641 6.76033,-3.58732 10.14553,-5.37312 l 0,-83.65062 z" style="fill:#000000;fill-opacity:1;fill-rule:evenodd;stroke:none" inkscape:connector-curvature="0"/>
      <path id="rect4126" d="m 591.54474,378.42214 0,81.94856 c 3.38101,1.82061 6.76447,3.63605 10.14553,5.45657 l 0,-81.94857 c -3.38055,-1.82097 -6.76486,-3.63583 -10.14553,-5.45656 z" style="fill:#000000;fill-opacity:1;fill-rule:evenodd;stroke:none" inkscape:connector-curvature="0"/>
      <path sodipodi:nodetypes="ccccccc" inkscape:connector-curvature="0" id="rect3078" d="m 204.78791,345.86928 218.10772,-117.38689 218.1077,117.38689 0,54.34579 -218.1077,-117.38689 -218.10772,117.38689 z" style="fill:#000000;fill-opacity:1;fill-rule:evenodd;stroke:none"/>
      <path style="fill:#000000;fill-opacity:1;fill-rule:evenodd;stroke:none" d="M 50.75127,576.29541 268.85901,458.90852 c 0.29008,0.38681 0,40.57818 0,40.57818 L 50.75127,616.87359 z" id="path3081" inkscape:connector-curvature="0" sodipodi:nodetypes="ccccc"/>
      <path sodipodi:nodetypes="ccccc" inkscape:connector-curvature="0" id="path3083" d="m 579.83066,458.90852 218.10773,117.38689 0,40.57818 L 579.83066,499.4867 c 0,0 0.13755,-38.87799 0,-40.57818 z" style="fill:#000000;fill-opacity:1;fill-rule:evenodd;stroke:none"/>
      <path id="rect4080" d="m 166.95639,597.99726 511.87846,0 0,18.83988 -511.87846,0 z" style="fill:#000000;fill-opacity:1;fill-rule:evenodd;stroke:none" inkscape:connector-curvature="0"/>
      <path sodipodi:nodetypes="cccccccccc" id="path4266" d="m 280.34261,621.67322 0,191.09369 141.1265,0 0,-191.09369 z m 13.4998,13.49128 114.12688,0 0,166.37849 -114.12688,0 z" style="fill:#000000;fill-opacity:1;fill-rule:evenodd;stroke:none" inkscape:connector-curvature="0"/>
      <path style="fill:#000000;fill-opacity:1;fill-rule:evenodd;stroke:none" d="m 404.86825,631.85176 -116.60014,160.19769 0,15.18486 6.38562,0 120.41439,-165.29795 0,-10.0846 z" id="path4272" inkscape:connector-curvature="0" sodipodi:nodetypes="ccccccc"/>
      <path style="fill:#000000;fill-opacity:1;fill-rule:evenodd;stroke:none" d="m 286.36637,629.37202 0,13.62005 117.79306,162.98396 10.58552,0 0,-9.44709 -120.87869,-167.15692 z" id="path4274" inkscape:connector-curvature="0" sodipodi:nodetypes="ccccccc"/>
      <path id="path4288" d="m 274.71272,631.50114 0.0299,-10.14553 -89.26258,0 -0.11355,10.14553 z" style="fill:#000000;fill-opacity:1;fill-rule:evenodd;stroke:none" inkscape:connector-curvature="0" sodipodi:nodetypes="ccccc"/>
      <path id="path3070" d="m 395.01782,378.5993 0,58.0625 5.25,0 0,-4.1875 44.4375,0 0,4.1875 5.28125,0 0,-58.0625 -54.96875,0 z m 5.25,4.9375 44.4375,0 0,44.53125 -44.4375,0 0,-44.53125 z m -5.25,67.28125 0,11.90625 5.25,0 0,-11.90625 -5.25,0 z m 49.6875,0 0,11.90625 5.28125,0 0,-11.90625 -5.28125,0 z m -49.6875,21.15625 0,9.9375 22.6875,0 0,-4.9375 -17.4375,0 0,-5 -5.25,0 z m 49.6875,0 0,5 -17.75,0 0,4.9375 23.03125,0 0,-9.9375 -5.28125,0 z" style="fill:#000000;fill-opacity:1;fill-rule:evenodd;stroke:none" inkscape:connector-curvature="0"/>
      <path style="fill:#000000;fill-opacity:1;fill-rule:evenodd;stroke:none" d="m 443.51163,380.91243 -44.3833,44.80758 0,4.37193 2.4863,0 45.8684,-46.27602 0,-2.90349 z" id="path4041" inkscape:connector-curvature="0" sodipodi:nodetypes="ccccccc"/>
      <path style="fill:#000000;fill-opacity:1;fill-rule:evenodd;stroke:none" d="m 397.37143,380.19849 0,3.92137 45.356,45.60977 4.12159,0 0,-2.71994 -46.5575,-46.8112 z" id="path4043" inkscape:connector-curvature="0" sodipodi:nodetypes="ccccccc"/>
      <path id="path4047" d="m 443.51782,429.81805 -6.78125,6.84375 6.84375,0 3.90625,-3.9375 0,-2.90625 -3.96875,0 z m -16.5625,21 0,2.625 2.59375,-2.625 -2.59375,0 z m -9.25,5.0625 -6.78125,6.84375 6.78125,0 0,-6.84375 z m -15.9375,16.09375 -2.625,2.65625 0,4.375 2.46875,0 6.96875,-7.03125 -6.8125,0 z" style="fill:#000000;fill-opacity:1;fill-rule:evenodd;stroke:none" inkscape:connector-curvature="0"/>
      <path id="path4049" d="m 397.36157,429.0993 0,3.9375 3.59375,3.625 6.875,0 -7.53125,-7.5625 -2.9375,0 z m 17.6875,21.71875 2.65625,2.65625 0,-2.65625 -2.65625,0 z m 11.90625,5.09375 0,6.8125 6.78125,0 -6.78125,-6.8125 z m 9.15625,16.0625 6.625,6.65625 4.125,0 0,-2.71875 -3.90625,-3.9375 -6.84375,0 z" style="fill:#000000;fill-opacity:1;fill-rule:evenodd;stroke:none" inkscape:connector-curvature="0"/>
      <path inkscape:connector-curvature="0" style="fill:#000000;fill-opacity:1;fill-rule:evenodd;stroke:none" d="m 309.00128,485.39786 227.78869,0 0,18.83988 -227.78869,0 z" id="path3156"/>
      <path id="path4138" d="m 524.27024,448.80559 0.068,-10.14553 -202.67441,0 -0.25783,10.14553 z" style="fill:#000000;fill-opacity:1;fill-rule:evenodd;stroke:none" inkscape:connector-curvature="0" sodipodi:nodetypes="ccccc"/>
      <path sodipodi:nodetypes="ccccc" inkscape:connector-curvature="0" style="fill:#000000;fill-opacity:1;fill-rule:evenodd;stroke:none" d="m 326.4201,438.77864 -5.25087,-0.0196 0,58.30244 5.25087,0.0741 z" id="path4151"/>
      <path id="path4227" d="m 524.49068,438.77864 -5.25087,-0.0196 0,58.30244 5.25087,0.0741 z" style="fill:#000000;fill-opacity:1;fill-rule:evenodd;stroke:none" inkscape:connector-curvature="0" sodipodi:nodetypes="ccccc"/>
      <path sodipodi:nodetypes="ccccc" inkscape:connector-curvature="0" style="fill:#000000;fill-opacity:1;fill-rule:evenodd;stroke:none" d="m 521.61829,469.96225 0.0673,-5.25087 -200.0674,10e-6 -0.25428,5.25087 z" id="path4229"/>
      <path sodipodi:nodetypes="ccccc" inkscape:connector-curvature="0" style="fill:#000000;fill-opacity:1;fill-rule:evenodd;stroke:none" d="m 424.96591,438.77864 -5.25086,-0.0196 0,58.30244 5.25086,0.0741 z" id="path4231"/>
      <path inkscape:connector-curvature="0" style="fill:#000000;fill-opacity:1;fill-rule:evenodd;stroke:none" d="m 427.18241,621.67322 0,191.09369 141.1265,0 0,-191.09369 z m 13.4998,13.49128 114.12688,0 0,166.37849 -114.12688,0 z" id="path4376" sodipodi:nodetypes="cccccccccc"/>
      <path sodipodi:nodetypes="ccccccc" inkscape:connector-curvature="0" id="path4378" d="m 551.70805,631.85176 -116.60014,160.19769 0,15.18486 6.38562,0 120.41439,-165.29795 0,-10.0846 z" style="fill:#000000;fill-opacity:1;fill-rule:evenodd;stroke:none"/>
      <path sodipodi:nodetypes="ccccccc" inkscape:connector-curvature="0" id="path4380" d="m 433.20617,629.37202 0,13.62005 117.79306,162.98396 10.58552,0 0,-9.44709 -120.87869,-167.15692 z" style="fill:#000000;fill-opacity:1;fill-rule:evenodd;stroke:none"/>
      <path inkscape:connector-curvature="0" style="fill:#000000;fill-opacity:1;fill-rule:evenodd;stroke:none" d="m 126.06347,643.76034 0,72.21329 7.04763,0.10887 59.65323,0 c 0,0 7.0998,0.0459 7.08959,0.0459 l 0,-72.36816 z m 7.04763,6.62814 59.65323,0 0,59.77907 -59.65323,0 z" id="path4435" sodipodi:nodetypes="cccccccccccc"/>
      <path sodipodi:nodetypes="ccccccc" inkscape:connector-curvature="0" id="path4437" d="m 191.16191,646.86551 -59.58047,60.15002 0,5.86891 3.33763,0 61.57408,-62.12127 0,-3.89766 z" style="fill:#000000;fill-opacity:1;fill-rule:evenodd;stroke:none"/>
      <path sodipodi:nodetypes="ccccccc" inkscape:connector-curvature="0" id="path4439" d="m 129.22297,645.90711 0,5.26407 60.88622,61.22689 5.53286,0 0,-3.65127 -62.49913,-62.83969 z" style="fill:#000000;fill-opacity:1;fill-rule:evenodd;stroke:none"/>
      <path sodipodi:nodetypes="ccccc" inkscape:connector-curvature="0" style="fill:#000000;fill-opacity:1;fill-rule:evenodd;stroke:none" d="m 663.02242,631.50114 0.0299,-10.14553 -89.26258,0 -0.11355,10.14553 z" id="path4445"/>
      <path sodipodi:nodetypes="cccccccccccc" id="path4459" d="m 642.91318,643.76034 0,72.21329 7.04763,0.10887 59.65323,0 c 0,0 7.0998,0.0459 7.08959,0.0459 l 0,-72.36816 z m 7.04763,6.62814 59.65323,0 0,59.77907 -59.65323,0 z" style="fill:#000000;fill-opacity:1;fill-rule:evenodd;stroke:none" inkscape:connector-curvature="0"/>
      <path style="fill:#000000;fill-opacity:1;fill-rule:evenodd;stroke:none" d="m 708.01162,646.86551 -59.58047,60.15002 0,5.86891 3.33763,0 61.57408,-62.12127 0,-3.89766 z" id="path4461" inkscape:connector-curvature="0" sodipodi:nodetypes="ccccccc"/>
      <path style="fill:#000000;fill-opacity:1;fill-rule:evenodd;stroke:none" d="m 646.07268,645.90711 0,5.26407 60.88622,61.22689 5.53286,0 0,-3.65127 -62.49913,-62.83969 z" id="path4463" inkscape:connector-curvature="0" sodipodi:nodetypes="ccccccc"/>
      <path inkscape:connector-curvature="0" style="fill:#000000;fill-opacity:1;fill-rule:evenodd;stroke:none" d="m 742.4688,616.19182 276.0673,35.75673 -2.42,18.68381 -276.06726,-35.75673 z" id="path4556"/>
      <path sodipodi:nodetypes="cccccc" inkscape:connector-curvature="0" style="fill:#000000;fill-opacity:1;fill-rule:evenodd;stroke:none" d="m 1003.5017,654.07055 c -3.3796,1.81893 -6.763,3.63013 -10.1423,5.44904 l 0,150.60635 10.1423,0.0796 0,-156.13494 z" id="path4568"/>
      <path sodipodi:nodetypes="ccssssssc" inkscape:connector-curvature="0" id="rect4570" d="m 964.16787,774.90338 21.96525,0 c 0,0 0.0716,4.26746 0.0716,9.56829 l 0,16.11461 c 0,5.30083 -2.54242,9.56829 -5.70049,9.56829 l -10.70753,0 c -3.15806,0 -5.70048,-4.26746 -5.70048,-9.56829 l 0,-16.11461 c 0,-5.30083 0.0716,-9.56829 0.0716,-9.56829 z" style="fill:#000000;fill-opacity:1;fill-rule:evenodd;stroke:none"/>
      <path sodipodi:nodetypes="cssscccc" inkscape:connector-curvature="0" id="path4572" d="m 883.32298,750.03534 c 0,2.83841 -5.56656,1.49238 -7.42666,3.35247 -1.86009,1.8601 -0.0137,3.74479 -2.85213,3.74479 -2.83841,0 -0.99204,-1.88469 -2.85213,-3.74479 -1.8601,-1.86009 -7.42666,-0.51406 -7.42666,-3.35247 l 0,0 10.27879,0 z" style="fill:#000000;fill-opacity:1;fill-rule:evenodd;stroke:none" transform="matrix(-1.0714286,0,0,-1,1910.5024,1523.8098)"/>
      <rect ry="0" rx="0" y="684.56824" x="776.19757" height="128.75096" width="50.762028" id="rect5084" style="fill:#000000;fill-opacity:1;fill-rule:evenodd;stroke:none"/>
      <rect style="fill:#000000;fill-opacity:1;fill-rule:evenodd;stroke:none" id="rect5086" width="21.68923" height="17.535973" x="776.19757" y="662.87897" rx="0" ry="0"/>
      <rect ry="0" rx="0" y="670.724" x="801.57861" height="9.6909323" width="14.305662" id="rect5088" style="fill:#000000;fill-opacity:1;fill-rule:evenodd;stroke:none"/>
      <rect style="fill:#000000;fill-opacity:1;fill-rule:evenodd;stroke:none" id="rect5090" width="6.1478953" height="6.1015148" x="801.57861" y="663.05573" rx="0" ry="0"/>
    </g>
  </g>
</svg>